<svg version="1.1" id="Layer_1" xmlns="http://www.w3.org/2000/svg" xmlns:xlink="http://www.w3.org/1999/xlink" x="0px" y="0px"
	 width="100%" viewBox="480 240 950 600" xml:space="preserve">
<path fill="#000000" opacity="1.000000" stroke="none"
	d="
M975.516052,692.499634
	C975.516052,734.886658 975.516052,777.273743 975.516052,820.096497
	C979.476135,818.376770 982.938110,817.345276 985.901367,815.509033
	C1003.605957,804.537598 1011.894348,788.145020 1011.940430,767.686951
	C1012.094543,699.191223 1012.116394,630.694336 1011.822632,562.199463
	C1011.792053,555.064941 1013.568787,551.111633 1019.938965,547.197815
	C1045.509399,531.487244 1070.555664,514.923035 1095.785034,498.658142
	C1125.901245,479.242798 1156.001099,459.802032 1186.118286,440.388306
	C1211.347412,424.125488 1236.594238,407.890015 1261.828125,391.634430
	C1287.059937,375.380188 1312.483276,359.412445 1337.433838,342.737366
	C1350.905273,333.734192 1365.514526,326.252991 1376.681030,313.941193
	C1389.996704,299.259674 1395.321289,281.847015 1396.169800,262.232208
	C1394.978394,262.649445 1394.147705,262.774139 1393.504883,263.189453
	C1363.112183,282.824677 1332.764160,302.528931 1302.348511,322.128601
	C1278.341064,337.598999 1254.227173,352.904297 1230.206909,368.355042
	C1200.071777,387.739136 1169.989502,407.205688 1139.873657,426.619934
	C1114.644043,442.884277 1089.385620,459.104279 1064.164062,475.381073
	C1035.956055,493.585083 1007.787842,511.850616 979.564087,530.030151
	C976.548157,531.972778 975.395142,534.231567 975.407104,538.008606
	C975.569336,589.171814 975.516052,640.335815 975.516052,692.499634
M613.385742,361.041992
	C630.236694,371.841675 647.123413,382.586029 663.930603,393.453491
	C691.987305,411.594849 719.953064,429.877075 748.030823,447.985718
	C780.709229,469.061554 813.472900,490.004974 846.187927,511.024078
	C866.148621,523.848694 886.047119,536.770935 906.079407,549.482605
	C909.082581,551.388367 910.098206,553.417114 910.091919,556.983826
	C909.968628,627.135193 909.975769,697.286926 910.053894,767.438477
	C910.059204,772.178040 910.153687,777.101135 911.375000,781.623413
	C916.376831,800.144226 927.381653,813.461792 946.486938,819.903931
	C946.486938,818.192383 946.486938,816.724792 946.486938,815.257263
	C946.486938,722.610474 946.456604,629.963562 946.596069,537.317017
	C946.601746,533.556396 944.987366,531.757141 942.244019,530.014465
	C923.177307,517.902649 904.092834,505.817627 885.114868,493.567780
	C857.042358,475.447601 829.095215,457.132996 801.017822,439.020416
	C768.341797,417.941315 735.553528,397.036285 702.871521,375.966400
	C685.093750,364.505157 667.484009,352.783295 649.712585,341.312164
	C617.036804,320.220612 584.302490,299.219635 551.581055,278.198822
	C543.207092,272.819244 534.789978,267.506744 525.537292,261.619141
	C526.102417,266.282349 526.624573,269.976135 526.984924,273.685608
	C527.886108,282.963196 530.989441,291.527252 535.237793,299.737915
	C542.636902,314.037842 554.744507,323.543762 567.923157,332.006927
	C582.866028,341.603027 597.740479,351.305542 613.385742,361.041992
M860.127502,558.267212
	C779.214294,506.238342 698.301086,454.209442 617.412720,402.196503
	C615.445190,415.349884 618.196655,427.538422 623.541016,438.752228
	C630.369019,453.078827 641.109497,464.048065 654.861755,472.627106
	C683.079956,490.230286 710.642944,508.880280 738.607300,526.894958
	C770.617554,547.516052 802.758057,567.935242 834.882690,588.378235
	C837.897278,590.296570 839.182617,592.431396 839.122925,596.264038
	C838.845337,614.092834 839.154419,631.929932 838.957947,649.760803
	C838.748657,668.751526 845.640747,684.543945 860.256775,696.520630
	C865.264343,700.623962 871.574219,703.137939 877.999817,706.781067
	C877.999817,661.220276 878.020996,617.222412 877.905579,573.224915
	C877.901794,571.792725 876.861023,569.881470 875.693787,569.018188
	C870.822021,565.415039 865.716980,562.127380 860.127502,558.267212
M1184.230347,479.697784
	C1180.197388,482.257050 1176.151123,484.795685 1172.133423,487.378632
	C1130.703247,514.013977 1089.284424,540.667175 1047.834839,567.272217
	C1045.149170,568.996094 1043.885132,570.889954 1043.898193,574.383911
	C1044.057251,616.868408 1044.001099,659.353699 1044.000977,701.838745
	C1044.000977,703.064697 1044.000977,704.290649 1044.000977,705.859741
	C1047.345337,704.599792 1050.423706,703.909424 1053.015381,702.389160
	C1072.723755,690.828552 1082.950928,673.664673 1082.992310,650.671570
	C1083.025635,632.178101 1083.030640,613.684448 1082.963501,595.191162
	C1082.953979,592.562805 1083.412720,590.883362 1086.027588,589.277649
	C1096.069458,583.111267 1105.786255,576.418701 1115.703491,570.045532
	C1147.048828,549.901733 1178.421997,529.801086 1209.800659,509.709259
	C1224.331299,500.405273 1239.145386,491.519501 1253.377930,481.781830
	C1266.189941,473.016052 1280.351685,465.908752 1289.824707,452.769287
	C1300.710938,437.670044 1306.518433,421.263519 1304.753906,401.991913
	C1265.188110,427.457520 1226.025146,452.663361 1186.864502,477.872925
	C1186.172363,478.318512 1185.509399,478.809509 1184.230347,479.697784
z"/>
<path fill="#000000" opacity="1.000000" stroke="none"
	d="
M975.515991,691.999634
	C975.516052,640.335815 975.569336,589.171814 975.407104,538.008606
	C975.395142,534.231567 976.548157,531.972778 979.564087,530.030151
	C1007.787842,511.850616 1035.956055,493.585083 1064.164062,475.381073
	C1089.385620,459.104279 1114.644043,442.884277 1139.873657,426.619934
	C1169.989502,407.205688 1200.071777,387.739136 1230.206909,368.355042
	C1254.227173,352.904297 1278.341064,337.598999 1302.348511,322.128601
	C1332.764160,302.528931 1363.112183,282.824677 1393.504883,263.189453
	C1394.147705,262.774139 1394.978394,262.649445 1396.169800,262.232208
	C1395.321289,281.847015 1389.996704,299.259674 1376.681030,313.941193
	C1365.514526,326.252991 1350.905273,333.734192 1337.433838,342.737366
	C1312.483276,359.412445 1287.059937,375.380188 1261.828125,391.634430
	C1236.594238,407.890015 1211.347412,424.125488 1186.118286,440.388306
	C1156.001099,459.802032 1125.901245,479.242798 1095.785034,498.658142
	C1070.555664,514.923035 1045.509399,531.487244 1019.938965,547.197815
	C1013.568787,551.111633 1011.792053,555.064941 1011.822632,562.199463
	C1012.116394,630.694336 1012.094543,699.191223 1011.940430,767.686951
	C1011.894348,788.145020 1003.605957,804.537598 985.901367,815.509033
	C982.938110,817.345276 979.476135,818.376770 975.516052,820.096497
	C975.516052,777.273743 975.516052,734.886658 975.515991,691.999634
z"/>
<path fill="#000000" opacity="1.000000" stroke="none"
	d="
M613.015259,361.001892
	C597.740479,351.305542 582.866028,341.603027 567.923157,332.006927
	C554.744507,323.543762 542.636902,314.037842 535.237793,299.737915
	C530.989441,291.527252 527.886108,282.963196 526.984924,273.685608
	C526.624573,269.976135 526.102417,266.282349 525.537292,261.619141
	C534.789978,267.506744 543.207092,272.819244 551.581055,278.198822
	C584.302490,299.219635 617.036804,320.220612 649.712585,341.312164
	C667.484009,352.783295 685.093750,364.505157 702.871521,375.966400
	C735.553528,397.036285 768.341797,417.941315 801.017822,439.020416
	C829.095215,457.132996 857.042358,475.447601 885.114868,493.567780
	C904.092834,505.817627 923.177307,517.902649 942.244019,530.014465
	C944.987366,531.757141 946.601746,533.556396 946.596069,537.317017
	C946.456604,629.963562 946.486938,722.610474 946.486938,815.257263
	C946.486938,816.724792 946.486938,818.192383 946.486938,819.903931
	C927.381653,813.461792 916.376831,800.144226 911.375000,781.623413
	C910.153687,777.101135 910.059204,772.178040 910.053894,767.438477
	C909.975769,697.286926 909.968628,627.135193 910.091919,556.983826
	C910.098206,553.417114 909.082581,551.388367 906.079407,549.482605
	C886.047119,536.770935 866.148621,523.848694 846.187927,511.024078
	C813.472900,490.004974 780.709229,469.061554 748.030823,447.985718
	C719.953064,429.877075 691.987305,411.594849 663.930603,393.453491
	C647.123413,382.586029 630.236694,371.841675 613.015259,361.001892
z"/>
<path fill="#000000" opacity="1.000000" stroke="none"
	d="
M860.412476,558.495605
	C865.716980,562.127380 870.822021,565.415039 875.693787,569.018188
	C876.861023,569.881470 877.901794,571.792725 877.905579,573.224915
	C878.020996,617.222412 877.999817,661.220276 877.999817,706.781067
	C871.574219,703.137939 865.264343,700.623962 860.256775,696.520630
	C845.640747,684.543945 838.748657,668.751526 838.957947,649.760803
	C839.154419,631.929932 838.845337,614.092834 839.122925,596.264038
	C839.182617,592.431396 837.897278,590.296570 834.882690,588.378235
	C802.758057,567.935242 770.617554,547.516052 738.607300,526.894958
	C710.642944,508.880280 683.079956,490.230286 654.861755,472.627106
	C641.109497,464.048065 630.369019,453.078827 623.541016,438.752228
	C618.196655,427.538422 615.445190,415.349884 617.412720,402.196503
	C698.301086,454.209442 779.214294,506.238342 860.412476,558.495605
z"/>
<path fill="#000000" opacity="1.000000" stroke="none"
	d="
M1184.531616,479.488525
	C1185.509399,478.809509 1186.172363,478.318512 1186.864502,477.872925
	C1226.025146,452.663361 1265.188110,427.457520 1304.753906,401.991913
	C1306.518433,421.263519 1300.710938,437.670044 1289.824707,452.769287
	C1280.351685,465.908752 1266.189941,473.016052 1253.377930,481.781830
	C1239.145386,491.519501 1224.331299,500.405273 1209.800659,509.709259
	C1178.421997,529.801086 1147.048828,549.901733 1115.703491,570.045532
	C1105.786255,576.418701 1096.069458,583.111267 1086.027588,589.277649
	C1083.412720,590.883362 1082.953979,592.562805 1082.963501,595.191162
	C1083.030640,613.684448 1083.025635,632.178101 1082.992310,650.671570
	C1082.950928,673.664673 1072.723755,690.828552 1053.015381,702.389160
	C1050.423706,703.909424 1047.345337,704.599792 1044.000977,705.859741
	C1044.000977,704.290649 1044.000977,703.064697 1044.000977,701.838745
	C1044.001099,659.353699 1044.057251,616.868408 1043.898193,574.383911
	C1043.885132,570.889954 1045.149170,568.996094 1047.834839,567.272217
	C1089.284424,540.667175 1130.703247,514.013977 1172.133423,487.378632
	C1176.151123,484.795685 1180.197388,482.257050 1184.531616,479.488525
z"/>
</svg>